<?xml version="1.0" encoding="UTF-8" standalone="no"?>
<!-- Generator: Adobe Illustrator 19.0.0, SVG Export Plug-In . SVG Version: 6.00 Build 0)  -->

<svg
   xmlns:dc="http://purl.org/dc/elements/1.1/"
   xmlns:cc="http://creativecommons.org/ns#"
   xmlns:rdf="http://www.w3.org/1999/02/22-rdf-syntax-ns#"
   xmlns:svg="http://www.w3.org/2000/svg"
   xmlns="http://www.w3.org/2000/svg"
   xmlns:sodipodi="http://sodipodi.sourceforge.net/DTD/sodipodi-0.dtd"
   xmlns:inkscape="http://www.inkscape.org/namespaces/inkscape"
   version="1.1"
   id="Capa_1"
   x="0px"
   y="0px"
   viewBox="0 0 330.109 330.109"
   style="enable-background:new 0 0 330.109 330.109;"
   xml:space="preserve"
   inkscape:version="0.48.5 r10040"
   width="100%"
   height="100%"
   sodipodi:docname="oakbrace.svg"><metadata
     id="metadata3097"><rdf:RDF><cc:Work
         rdf:about=""><dc:format>image/svg+xml</dc:format><dc:type
           rdf:resource="http://purl.org/dc/dcmitype/StillImage" /><dc:title /></cc:Work></rdf:RDF></metadata><defs
     id="defs3095" /><sodipodi:namedview
     pagecolor="#ffffff"
     bordercolor="#666666"
     borderopacity="1"
     objecttolerance="10"
     gridtolerance="10"
     guidetolerance="10"
     inkscape:pageopacity="0"
     inkscape:pageshadow="2"
     inkscape:window-width="1680"
     inkscape:window-height="1002"
     id="namedview3093"
     showgrid="false"
     inkscape:zoom="2.4416178"
     inkscape:cx="101.572"
     inkscape:cy="158.71951"
     inkscape:window-x="0"
     inkscape:window-y="29"
     inkscape:window-maximized="1"
     inkscape:current-layer="Capa_1" /><g
     id="g3063" /><g
     id="g3065" /><g
     id="g3067" /><g
     id="g3069" /><g
     id="g3071" /><g
     id="g3073" /><g
     id="g3075" /><g
     id="g3077" /><g
     id="g3079" /><g
     id="g3081" /><g
     id="g3083" /><g
     id="g3085" /><g
     id="g3087" /><g
     id="g3089" /><g
     id="g3091" /><g
     id="g3371"
     transform="matrix(0.54360406,0,0,0.54360406,26.163614,26.163656)"
     style="fill:#00a000;fill-opacity:1;stroke:#003c00;stroke-width:5.19961214;stroke-linecap:round;stroke-linejoin:round;stroke-miterlimit:4;stroke-opacity:1;stroke-dasharray:none"><g
       id="g3323"
       style="fill:#00a000;fill-opacity:1;stroke:#003c00;stroke-width:5.19961214;stroke-linecap:round;stroke-linejoin:round;stroke-miterlimit:4;stroke-opacity:1;stroke-dasharray:none"><path
         id="path3325"
         d="m 255.5,88 c -4.142,0 -7.5,3.358 -7.5,7.5 v 8 c 0,4.142 3.358,7.5 7.5,7.5 4.142,0 7.5,-3.358 7.5,-7.5 v -8 c 0,-4.142 -3.358,-7.5 -7.5,-7.5 z"
         inkscape:connector-curvature="0"
         style="fill:#00a000;fill-opacity:1;stroke:#003c00;stroke-width:5.19961214;stroke-linecap:round;stroke-linejoin:round;stroke-miterlimit:4;stroke-opacity:1;stroke-dasharray:none" /><path
         id="path3329"
         d="m 196.803,282.197 c -2.929,-2.929 -7.678,-2.929 -10.606,0 -2.929,2.929 -2.929,7.677 0,10.606 l 8,8 c 1.464,1.464 3.384,2.197 5.303,2.197 1.919,0 3.839,-0.732 5.303,-2.197 2.929,-2.929 2.929,-7.677 0,-10.606 l -8,-8 z"
         inkscape:connector-curvature="0"
         style="fill:#00a000;fill-opacity:1;stroke:#003c00;stroke-width:5.19961214;stroke-linecap:round;stroke-linejoin:round;stroke-miterlimit:4;stroke-opacity:1;stroke-dasharray:none" /><path
         id="path3331"
         d="m 314.197,234.197 -8,8 c -2.929,2.929 -2.929,7.677 0,10.606 1.464,1.464 3.384,2.197 5.303,2.197 1.919,0 3.839,-0.732 5.303,-2.197 l 8,-8 c 2.929,-2.929 2.929,-7.677 0,-10.606 -2.928,-2.929 -7.678,-2.929 -10.606,0 z"
         inkscape:connector-curvature="0"
         style="fill:#00a000;fill-opacity:1;stroke:#003c00;stroke-width:5.19961214;stroke-linecap:round;stroke-linejoin:round;stroke-miterlimit:4;stroke-opacity:1;stroke-dasharray:none" /><path
         id="path3333"
         d="m 196.803,178.197 c -2.929,-2.929 -7.678,-2.929 -10.606,0 -2.929,2.929 -2.929,7.677 0,10.606 l 8,8 c 1.464,1.464 3.384,2.197 5.303,2.197 1.919,0 3.839,-0.732 5.303,-2.197 2.929,-2.929 2.929,-7.677 0,-10.606 l -8,-8 z"
         inkscape:connector-curvature="0"
         style="fill:#00a000;fill-opacity:1;stroke:#003c00;stroke-width:5.19961214;stroke-linecap:round;stroke-linejoin:round;stroke-miterlimit:4;stroke-opacity:1;stroke-dasharray:none" /></g><g
       id="g3335"
       style="fill:#00a000;fill-opacity:1;stroke:#003c00;stroke-width:5.19961214;stroke-linecap:round;stroke-linejoin:round;stroke-miterlimit:4;stroke-opacity:1;stroke-dasharray:none" /><g
       id="g3337"
       style="fill:#00a000;fill-opacity:1;stroke:#003c00;stroke-width:5.19961214;stroke-linecap:round;stroke-linejoin:round;stroke-miterlimit:4;stroke-opacity:1;stroke-dasharray:none" /><g
       id="g3339"
       style="fill:#00a000;fill-opacity:1;stroke:#003c00;stroke-width:5.19961214;stroke-linecap:round;stroke-linejoin:round;stroke-miterlimit:4;stroke-opacity:1;stroke-dasharray:none" /><g
       id="g3341"
       style="fill:#00a000;fill-opacity:1;stroke:#003c00;stroke-width:5.19961214;stroke-linecap:round;stroke-linejoin:round;stroke-miterlimit:4;stroke-opacity:1;stroke-dasharray:none" /><g
       id="g3343"
       style="fill:#00a000;fill-opacity:1;stroke:#003c00;stroke-width:5.19961214;stroke-linecap:round;stroke-linejoin:round;stroke-miterlimit:4;stroke-opacity:1;stroke-dasharray:none" /><g
       id="g3345"
       style="fill:#00a000;fill-opacity:1;stroke:#003c00;stroke-width:5.19961214;stroke-linecap:round;stroke-linejoin:round;stroke-miterlimit:4;stroke-opacity:1;stroke-dasharray:none" /><g
       id="g3347"
       style="fill:#00a000;fill-opacity:1;stroke:#003c00;stroke-width:5.19961214;stroke-linecap:round;stroke-linejoin:round;stroke-miterlimit:4;stroke-opacity:1;stroke-dasharray:none" /><g
       id="g3349"
       style="fill:#00a000;fill-opacity:1;stroke:#003c00;stroke-width:5.19961214;stroke-linecap:round;stroke-linejoin:round;stroke-miterlimit:4;stroke-opacity:1;stroke-dasharray:none" /><g
       id="g3351"
       style="fill:#00a000;fill-opacity:1;stroke:#003c00;stroke-width:5.19961214;stroke-linecap:round;stroke-linejoin:round;stroke-miterlimit:4;stroke-opacity:1;stroke-dasharray:none" /><g
       id="g3353"
       style="fill:#00a000;fill-opacity:1;stroke:#003c00;stroke-width:5.19961214;stroke-linecap:round;stroke-linejoin:round;stroke-miterlimit:4;stroke-opacity:1;stroke-dasharray:none" /><g
       id="g3355"
       style="fill:#00a000;fill-opacity:1;stroke:#003c00;stroke-width:5.19961214;stroke-linecap:round;stroke-linejoin:round;stroke-miterlimit:4;stroke-opacity:1;stroke-dasharray:none" /><g
       id="g3357"
       style="fill:#00a000;fill-opacity:1;stroke:#003c00;stroke-width:5.19961214;stroke-linecap:round;stroke-linejoin:round;stroke-miterlimit:4;stroke-opacity:1;stroke-dasharray:none" /><g
       id="g3359"
       style="fill:#00a000;fill-opacity:1;stroke:#003c00;stroke-width:5.19961214;stroke-linecap:round;stroke-linejoin:round;stroke-miterlimit:4;stroke-opacity:1;stroke-dasharray:none" /><g
       id="g3361"
       style="fill:#00a000;fill-opacity:1;stroke:#003c00;stroke-width:5.19961214;stroke-linecap:round;stroke-linejoin:round;stroke-miterlimit:4;stroke-opacity:1;stroke-dasharray:none" /><g
       id="g3363"
       style="fill:#00a000;fill-opacity:1;stroke:#003c00;stroke-width:5.19961214;stroke-linecap:round;stroke-linejoin:round;stroke-miterlimit:4;stroke-opacity:1;stroke-dasharray:none" /></g><g
     id="g3064"><path
       style="enable-background:new 0 0 330.10899999999998045 330.10899999999998045;fill:#00a000;fill-opacity:1;stroke:#003c00;stroke-width:5.19961214000000016;stroke-linecap:round;stroke-linejoin:round;stroke-miterlimit:4;stroke-opacity:1;stroke-dasharray:none"
       inkscape:connector-curvature="0"
       d="m 393.375,238.451 c -4.497,-5.071 -8.744,-9.861 -10.631,-16.894 -2.307,-8.599 0.411,-14.827 3.852,-22.712 3.986,-9.135 8.503,-19.489 4.058,-33.599 -5.5,-17.458 -18.597,-22.211 -28.159,-25.682 -6.475,-2.35 -10.533,-3.968 -12.307,-7.46 -3.206,-6.312 -1.292,-12.481 2.095,-22.024 4.226,-11.905 9.486,-26.722 -2.782,-43.079 C 339.884,54.179 329.055,52.484 320.353,51.123 313.011,49.975 307.212,49.067 300.988,42.388 297.355,38.49 295.085,33.301 292.682,27.806 287.262,15.417 280.518,0 255.5,0 c -25.018,0 -31.762,15.417 -37.181,27.805 -2.403,5.494 -4.673,10.684 -8.306,14.582 -6.224,6.68 -12.023,7.587 -19.365,8.735 -8.702,1.361 -19.531,3.056 -29.148,15.878 -12.268,16.357 -7.008,31.174 -2.782,43.079 3.388,9.543 5.301,15.712 2.095,22.024 -1.774,3.493 -5.833,5.11 -12.307,7.46 -9.563,3.471 -22.659,8.224 -28.159,25.682 -4.445,14.109 0.072,24.463 4.058,33.599 3.44,7.885 6.158,14.113 3.852,22.712 -1.887,7.033 -6.134,11.823 -10.631,16.894 -6.988,7.881 -14.909,16.813 -13.603,33.63 1.775,22.86 17.495,32.117 30.125,39.556 10.124,5.962 16.41,9.994 18.022,17.448 0.784,3.627 -0.95,6.893 -4.081,12.354 -8.518,14.854 -13.827,30.285 14.399,55.641 27.301,24.524 72.564,54.19 85.512,62.527 V 503.5 c 0,4.142 3.358,7.5 7.5,7.5 4.142,0 7.5,-3.358 7.5,-7.5 v -43.894 c 12.948,-8.337 58.211,-38.002 85.512,-62.527 28.226,-25.355 22.917,-40.787 14.399,-55.641 -3.131,-5.46 -4.865,-8.727 -4.081,-12.354 1.612,-7.454 7.898,-11.486 18.022,-17.448 12.63,-7.438 28.35,-16.695 30.125,-39.556 1.307,-16.816 -6.614,-25.748 -13.602,-33.629 z m -1.353,32.468 c -1.17,15.065 -11.185,20.963 -22.782,27.792 -10.307,6.07 -21.989,12.95 -25.071,27.204 -2.04,9.437 2.268,16.949 5.73,22.986 2.817,4.912 5.25,9.155 4.741,14.02 -0.651,6.219 -6.085,13.957 -16.152,23 -22.041,19.799 -57.383,43.833 -75.488,55.767 v -90.185 c 0,-10e-4 0,-0.003 0,-0.005 v -44.891 l 29.803,-29.803 c 2.929,-2.929 2.929,-7.677 0,-10.606 -2.929,-2.929 -7.678,-2.929 -10.606,0 L 263,285.394 v -37.891 c 0,-10e-4 0,-0.003 0,-0.005 v -68.891 l 21.803,-21.803 c 2.929,-2.929 2.929,-7.677 0,-10.606 -2.929,-2.929 -7.678,-2.929 -10.606,0 L 263,157.394 V 135.5 c 0,-4.142 -3.358,-7.5 -7.5,-7.5 -4.142,0 -7.5,3.358 -7.5,7.5 v 39.998 c 0,0.001 0,0.003 0,0.005 v 53.891 l -19.197,-19.197 c -2.929,-2.929 -7.678,-2.929 -10.606,0 -2.929,2.929 -2.929,7.677 0,10.606 L 248,250.606 v 52.891 c 0,10e-4 0,0.003 0,0.005 v 29.891 l -19.197,-19.197 c -2.929,-2.929 -7.678,-2.929 -10.606,0 -2.929,2.929 -2.929,7.677 0,10.606 L 248,354.606 v 87.082 c -18.103,-11.931 -53.438,-35.959 -75.488,-55.767 -10.067,-9.043 -15.501,-16.781 -16.152,-23 -0.509,-4.865 1.923,-9.108 4.741,-14.02 3.462,-6.037 7.77,-13.549 5.73,-22.986 -3.082,-14.254 -14.764,-21.134 -25.071,-27.204 -11.597,-6.83 -21.612,-12.727 -22.782,-27.792 -0.813,-10.468 3.668,-15.521 9.871,-22.517 5.199,-5.863 11.091,-12.509 13.895,-22.959 3.668,-13.67 -0.72,-23.726 -4.591,-32.598 -3.496,-8.012 -6.257,-14.34 -3.5,-23.092 3.274,-10.393 10.201,-12.907 18.97,-16.09 7.507,-2.725 16.015,-5.813 20.563,-14.768 6.285,-12.374 2.238,-23.776 -1.333,-33.836 C 168.641,93.194 166.419,85.441 173.5,76 c 5.958,-7.944 11.625,-8.831 19.466,-10.058 8.137,-1.273 18.263,-2.857 28.021,-13.329 5.376,-5.77 8.403,-12.69 11.074,-18.796 C 237.195,22.083 240.293,15 255.5,15 c 15.207,0 18.305,7.083 23.438,18.817 2.671,6.106 5.698,13.027 11.074,18.796 9.758,10.472 19.884,12.056 28.021,13.329 7.842,1.227 13.508,2.114 19.466,10.058 7.081,9.441 4.859,17.194 0.646,29.061 -3.571,10.06 -7.618,21.462 -1.333,33.836 4.548,8.955 13.057,12.043 20.563,14.768 8.769,3.183 15.696,5.697 18.97,16.09 2.757,8.751 -0.004,15.08 -3.5,23.092 -3.871,8.872 -8.259,18.927 -4.591,32.598 2.804,10.45 8.696,17.096 13.895,22.959 6.205,6.993 10.686,12.047 9.873,22.515 z"
       id="path3327"
       transform="matrix(0.54360407,0,0,0.54360407,26.163615,26.163657)" /><g
       id="text4162"
       style="font-size:325.165802px;font-style:normal;font-variant:normal;font-stretch:normal;line-height:125%;letter-spacing:0px;word-spacing:0px;fill:#00a000;fill-opacity:1;stroke:#003c00;stroke-width:2.82653046;stroke-linecap:round;stroke-linejoin:round;stroke-opacity:1;font-family:Roboto Mono Thin for Powerline;-inkscape-font-specification:Roboto Mono Thin for Powerline Semi-Light"><path
         id="path3058"
         style="fill:#00a000;stroke:#003c00;font-family:Roboto Mono Thin for Powerline;-inkscape-font-specification:Roboto Mono Thin for Powerline Semi-Light"
         d="M 128.84294,326.84353 C 110.95445,321.02182 97.194192,312.13057 87.562125,300.16978 78.03568,288.20889 73.166665,272.70214 72.955067,253.64947 l 0,-38.89923 c -0.211794,-14.1836 -4.181099,-24.92719 -11.907927,-32.23079 -7.727,-7.40929 -18.52351,-11.3786 -32.389563,-11.90792 l -0.158772,-3.65177 0,-3.17544 0.158772,-3.65177 c 13.760204,-0.52914 24.50379,-4.44552 32.23079,-11.74915 7.832676,-7.30342 11.854906,-17.99408 12.0667,-32.07202 l 0,-39.216776 C 73.166665,58.042119 78.03568,42.482443 87.562125,30.415529 97.194192,18.24322 110.90153,9.1932042 128.68417,3.2654549 l 2.54035,7.1447561 C 115.453,15.702865 103.28046,23.959019 94.706881,35.1787 86.133062,46.398824 81.740364,60.370778 81.528775,77.094604 l 0,39.216776 c -0.211803,13.86624 -3.863564,24.92738 -10.955293,33.18342 -7.091921,8.15042 -16.618254,13.44282 -28.579026,15.87724 11.960772,2.54045 21.487105,7.99162 28.579026,16.35355 7.091729,8.25623 10.74349,19.26444 10.955293,33.02465 l 0,38.89923 c 0.105741,8.46786 1.322995,16.14185 3.651764,23.022 2.434397,6.88011 5.821537,13.0193 10.161431,18.41759 4.339654,5.50407 9.57914,10.26723 15.71846,14.28951 6.24491,4.12803 13.23089,7.51517 20.95796,10.16143 l -3.17545,7.30353" /></g><g
       id="text4166"
       style="font-size:325.165802px;font-style:normal;font-variant:normal;font-stretch:normal;line-height:125%;letter-spacing:0px;word-spacing:0px;fill:#00a000;fill-opacity:1;stroke:#003c00;stroke-width:2.82653046;stroke-linecap:round;stroke-linejoin:round;stroke-opacity:1;font-family:Roboto Mono Thin for Powerline;-inkscape-font-specification:Roboto Mono Thin for Powerline Semi-Light"
       transform="scale(-1,1)"><path
         id="path3061"
         style="fill:#00a000;stroke:#003c00;font-family:Roboto Mono Thin for Powerline;-inkscape-font-specification:Roboto Mono Thin for Powerline Semi-Light"
         d="m -201.26604,326.84353 c -17.88849,-5.82171 -31.64875,-14.71296 -41.28082,-26.67375 -9.52644,-11.96089 -14.39546,-27.46764 -14.60706,-46.52031 l 0,-38.89923 c -0.21179,-14.1836 -4.1811,-24.92719 -11.90792,-32.23079 -7.727,-7.40929 -18.52351,-11.3786 -32.38957,-11.90792 l -0.15877,-3.65177 0,-3.17544 0.15877,-3.65177 c 13.76021,-0.52914 24.50379,-4.44552 32.23079,-11.74915 7.83268,-7.30342 11.85491,-17.99408 12.0667,-32.07202 l 0,-39.216776 c 0.2116,-19.052485 5.08062,-34.612161 14.60706,-46.679075 9.63207,-12.172309 23.3394,-21.2223248 41.12204,-27.1500741 l 2.54036,7.1447561 c -15.77153,5.292654 -27.94406,13.548808 -36.51764,24.768489 -8.57382,11.220124 -12.96652,25.192078 -13.17811,41.915904 l 0,39.216776 c -0.2118,13.86624 -3.86356,24.92738 -10.95529,33.18342 -7.09192,8.15042 -16.61826,13.44282 -28.57903,15.87724 11.96077,2.54045 21.48711,7.99162 28.57903,16.35355 7.09173,8.25623 10.74349,19.26444 10.95529,33.02465 l 0,38.89923 c 0.10574,8.46786 1.323,16.14185 3.65177,23.022 2.43439,6.88011 5.82153,13.0193 10.16143,18.41759 4.33965,5.50407 9.57913,10.26723 15.71846,14.28951 6.2449,4.12803 13.23088,7.51517 20.95795,10.16143 l -3.17544,7.30353" /></g></g></svg>