<?xml version="1.0" encoding="UTF-8" standalone="no"?>
<!-- Generator: Adobe Illustrator 19.0.0, SVG Export Plug-In . SVG Version: 6.00 Build 0)  -->

<svg
   version="1.1"
   id="Capa_1"
   x="0px"
   y="0px"
   viewBox="0 0 52.999999 52.999999"
   xml:space="preserve"
   inkscape:version="1.2.2 (b0a8486541, 2022-12-01)"
   width="53"
   height="53"
   sodipodi:docname="logo.svg"
   xmlns:inkscape="http://www.inkscape.org/namespaces/inkscape"
   xmlns:sodipodi="http://sodipodi.sourceforge.net/DTD/sodipodi-0.dtd"
   xmlns="http://www.w3.org/2000/svg"
   xmlns:svg="http://www.w3.org/2000/svg"
   xmlns:rdf="http://www.w3.org/1999/02/22-rdf-syntax-ns#"
   xmlns:cc="http://creativecommons.org/ns#"
   xmlns:dc="http://purl.org/dc/elements/1.1/"><metadata
     id="metadata3097"><rdf:RDF><cc:Work
         rdf:about=""><dc:format>image/svg+xml</dc:format><dc:type
           rdf:resource="http://purl.org/dc/dcmitype/StillImage" /></cc:Work></rdf:RDF></metadata><defs
     id="defs3095" /><sodipodi:namedview
     pagecolor="#ffffff"
     bordercolor="#666666"
     borderopacity="1"
     objecttolerance="10"
     gridtolerance="10"
     guidetolerance="10"
     inkscape:pageopacity="0"
     inkscape:pageshadow="2"
     inkscape:window-width="1920"
     inkscape:window-height="1012"
     id="namedview3093"
     showgrid="false"
     inkscape:zoom="9.1422276"
     inkscape:cx="36.424383"
     inkscape:cy="27.509707"
     inkscape:window-x="0"
     inkscape:window-y="0"
     inkscape:window-maximized="1"
     inkscape:current-layer="Capa_1"
     inkscape:showpageshadow="2"
     inkscape:pagecheckerboard="0"
     inkscape:deskcolor="#d1d1d1" /><g
     id="g3063" /><g
     id="g3065" /><g
     id="g3067" /><g
     id="g3069" /><g
     id="g3071" /><g
     id="g3073" /><g
     id="g3075" /><g
     id="g3077" /><g
     id="g3079" /><g
     id="g3081" /><g
     id="g3083" /><g
     id="g3085" /><g
     id="g3087" /><g
     id="g3089" /><g
     id="g3091" /><g
     id="g4923"
     transform="matrix(0.15696209,0,0,0.15696209,0.24070062,-0.58491562)"><g
       id="g3371"
       transform="matrix(0.54360406,0,0,0.54360406,32.163614,38.163656)"
       style="fill:#008080;fill-opacity:1;stroke:#008080;stroke-width:14.9502;stroke-linecap:round;stroke-linejoin:round;stroke-miterlimit:4;stroke-dasharray:none;stroke-opacity:1"><g
         id="g3323"
         style="fill:#008080;fill-opacity:1;stroke:#008080;stroke-width:14.9502;stroke-linecap:round;stroke-linejoin:round;stroke-miterlimit:4;stroke-dasharray:none;stroke-opacity:1"><path
           id="path3325"
           d="m 255.5,88 c -4.142,0 -7.5,3.358 -7.5,7.5 v 8 c 0,4.142 3.358,7.5 7.5,7.5 4.142,0 7.5,-3.358 7.5,-7.5 v -8 c 0,-4.142 -3.358,-7.5 -7.5,-7.5 z"
           inkscape:connector-curvature="0"
           style="fill:#008080;fill-opacity:1;stroke:#008080;stroke-width:14.9502;stroke-linecap:round;stroke-linejoin:round;stroke-miterlimit:4;stroke-dasharray:none;stroke-opacity:1" /><path
           id="path3329"
           d="m 196.803,282.197 c -2.929,-2.929 -7.678,-2.929 -10.606,0 -2.929,2.929 -2.929,7.677 0,10.606 l 8,8 c 1.464,1.464 3.384,2.197 5.303,2.197 1.919,0 3.839,-0.732 5.303,-2.197 2.929,-2.929 2.929,-7.677 0,-10.606 z"
           inkscape:connector-curvature="0"
           style="fill:#008080;fill-opacity:1;stroke:#008080;stroke-width:14.9502;stroke-linecap:round;stroke-linejoin:round;stroke-miterlimit:4;stroke-dasharray:none;stroke-opacity:1" /><path
           id="path3331"
           d="m 314.197,234.197 -8,8 c -2.929,2.929 -2.929,7.677 0,10.606 1.464,1.464 3.384,2.197 5.303,2.197 1.919,0 3.839,-0.732 5.303,-2.197 l 8,-8 c 2.929,-2.929 2.929,-7.677 0,-10.606 -2.928,-2.929 -7.678,-2.929 -10.606,0 z"
           inkscape:connector-curvature="0"
           style="fill:#008080;fill-opacity:1;stroke:#008080;stroke-width:14.9502;stroke-linecap:round;stroke-linejoin:round;stroke-miterlimit:4;stroke-dasharray:none;stroke-opacity:1" /><path
           id="path3333"
           d="m 196.803,178.197 c -2.929,-2.929 -7.678,-2.929 -10.606,0 -2.929,2.929 -2.929,7.677 0,10.606 l 8,8 c 1.464,1.464 3.384,2.197 5.303,2.197 1.919,0 3.839,-0.732 5.303,-2.197 2.929,-2.929 2.929,-7.677 0,-10.606 z"
           inkscape:connector-curvature="0"
           style="fill:#008080;fill-opacity:1;stroke:#008080;stroke-width:14.9502;stroke-linecap:round;stroke-linejoin:round;stroke-miterlimit:4;stroke-dasharray:none;stroke-opacity:1" /></g><g
         id="g3335"
         style="fill:#008080;fill-opacity:1;stroke:#008080;stroke-width:14.9502;stroke-linecap:round;stroke-linejoin:round;stroke-miterlimit:4;stroke-dasharray:none;stroke-opacity:1" /><g
         id="g3337"
         style="fill:#008080;fill-opacity:1;stroke:#008080;stroke-width:14.9502;stroke-linecap:round;stroke-linejoin:round;stroke-miterlimit:4;stroke-dasharray:none;stroke-opacity:1" /><g
         id="g3339"
         style="fill:#008080;fill-opacity:1;stroke:#008080;stroke-width:14.9502;stroke-linecap:round;stroke-linejoin:round;stroke-miterlimit:4;stroke-dasharray:none;stroke-opacity:1" /><g
         id="g3341"
         style="fill:#008080;fill-opacity:1;stroke:#008080;stroke-width:14.9502;stroke-linecap:round;stroke-linejoin:round;stroke-miterlimit:4;stroke-dasharray:none;stroke-opacity:1" /><g
         id="g3343"
         style="fill:#008080;fill-opacity:1;stroke:#008080;stroke-width:14.9502;stroke-linecap:round;stroke-linejoin:round;stroke-miterlimit:4;stroke-dasharray:none;stroke-opacity:1" /><g
         id="g3345"
         style="fill:#008080;fill-opacity:1;stroke:#008080;stroke-width:14.9502;stroke-linecap:round;stroke-linejoin:round;stroke-miterlimit:4;stroke-dasharray:none;stroke-opacity:1" /><g
         id="g3347"
         style="fill:#008080;fill-opacity:1;stroke:#008080;stroke-width:14.9502;stroke-linecap:round;stroke-linejoin:round;stroke-miterlimit:4;stroke-dasharray:none;stroke-opacity:1" /><g
         id="g3349"
         style="fill:#008080;fill-opacity:1;stroke:#008080;stroke-width:14.9502;stroke-linecap:round;stroke-linejoin:round;stroke-miterlimit:4;stroke-dasharray:none;stroke-opacity:1" /><g
         id="g3351"
         style="fill:#008080;fill-opacity:1;stroke:#008080;stroke-width:14.9502;stroke-linecap:round;stroke-linejoin:round;stroke-miterlimit:4;stroke-dasharray:none;stroke-opacity:1" /><g
         id="g3353"
         style="fill:#008080;fill-opacity:1;stroke:#008080;stroke-width:14.9502;stroke-linecap:round;stroke-linejoin:round;stroke-miterlimit:4;stroke-dasharray:none;stroke-opacity:1" /><g
         id="g3355"
         style="fill:#008080;fill-opacity:1;stroke:#008080;stroke-width:14.9502;stroke-linecap:round;stroke-linejoin:round;stroke-miterlimit:4;stroke-dasharray:none;stroke-opacity:1" /><g
         id="g3357"
         style="fill:#008080;fill-opacity:1;stroke:#008080;stroke-width:14.9502;stroke-linecap:round;stroke-linejoin:round;stroke-miterlimit:4;stroke-dasharray:none;stroke-opacity:1" /><g
         id="g3359"
         style="fill:#008080;fill-opacity:1;stroke:#008080;stroke-width:14.9502;stroke-linecap:round;stroke-linejoin:round;stroke-miterlimit:4;stroke-dasharray:none;stroke-opacity:1" /><g
         id="g3361"
         style="fill:#008080;fill-opacity:1;stroke:#008080;stroke-width:14.9502;stroke-linecap:round;stroke-linejoin:round;stroke-miterlimit:4;stroke-dasharray:none;stroke-opacity:1" /><g
         id="g3363"
         style="fill:#008080;fill-opacity:1;stroke:#008080;stroke-width:14.9502;stroke-linecap:round;stroke-linejoin:round;stroke-miterlimit:4;stroke-dasharray:none;stroke-opacity:1" /></g><path
       style="fill:#008080;fill-opacity:1;stroke:#008080;stroke-width:8.127;stroke-linecap:round;stroke-linejoin:round;stroke-miterlimit:4;stroke-dasharray:none;stroke-opacity:1"
       inkscape:connector-curvature="0"
       d="m 246.00387,167.78659 c -2.44459,-2.75662 -4.75328,-5.36048 -5.77906,-9.18365 -1.25409,-4.67445 0.22342,-8.06001 2.09396,-12.34633 2.16681,-4.96582 4.62227,-10.5943 2.20595,-18.26455 -2.98982,-9.49024 -10.10941,-12.07399 -15.30735,-13.96084 -3.51983,-1.27747 -5.72578,-2.15703 -6.69013,-4.05529 -1.7428,-3.43123 -0.70234,-6.78472 1.13885,-11.972337 2.29727,-6.471606 5.15663,-14.526188 -1.51231,-23.41792 -5.22784,-6.970091 -11.11453,-7.8915 -15.84497,-8.631345 -3.99114,-0.624058 -7.1435,-1.11765 -10.52689,-4.748382 -1.97492,-2.118968 -3.2089,-4.93973 -4.51518,-7.926834 -2.94633,-6.734711 -6.6124,-15.115455 -20.21229,-15.115455 -13.59988,0 -17.26595,8.380744 -20.21174,15.114911 -1.30628,2.986561 -2.54026,5.807866 -4.51517,7.926835 -3.3834,3.631275 -6.53576,4.124324 -10.5269,4.748381 -4.73044,0.739845 -10.61713,1.661254 -15.84497,8.631346 -6.66893,8.891731 -3.80958,16.946313 -1.5123,23.417919 1.84173,5.187611 2.88164,8.541111 1.13885,11.972341 -0.96436,1.8988 -3.17085,2.77781 -6.69014,4.05528 -5.19848,1.88685 -12.31752,4.4706 -15.307346,13.96084 -2.41632,7.66971 0.03914,13.29819 2.205945,18.26455 1.870001,4.28632 3.347511,7.67189 2.093961,12.34634 -1.02578,3.82317 -3.334465,6.42703 -5.779053,9.18365 -3.798705,4.28414 -8.104593,9.13961 -7.394646,18.2814 0.964897,12.42679 9.510353,17.45893 16.376069,21.5028 5.50345,3.24097 8.92055,5.43278 9.79684,9.48481 0.42618,1.97165 -0.51643,3.74706 -2.21845,6.71568 -4.63042,8.0747 -7.51641,16.46305 7.82735,30.24668 14.84094,13.33134 39.44609,29.4579 46.48467,33.98993 v 23.86096 c 0,2.2516 1.82543,4.07703 4.07703,4.07703 2.25161,0 4.07704,-1.82543 4.07704,-4.07703 v -23.86096 c 7.03858,-4.53203 31.64373,-20.65804 46.48467,-33.98993 15.34377,-13.78308 12.45777,-22.17198 7.82735,-30.24668 -1.70202,-2.96807 -2.64463,-4.74403 -2.21845,-6.71568 0.87629,-4.05203 4.29339,-6.24384 9.79684,-9.48481 6.86572,-4.04332 15.41117,-9.07546 16.37607,-21.5028 0.71049,-9.14124 -3.5954,-13.99672 -7.3941,-18.28086 z m -0.7355,17.64974 c -0.63602,8.18939 -6.08021,11.39557 -12.38439,15.10784 -5.60293,3.29968 -11.95331,7.03968 -13.6287,14.78821 -1.10895,5.12999 1.2329,9.21354 3.11486,12.49528 1.53133,2.67018 2.85392,4.9767 2.57722,7.62133 -0.35388,3.38067 -3.30783,7.58708 -8.78029,12.50289 -11.98158,10.76282 -31.19363,23.8278 -41.03558,30.31517 v -49.02493 c 0,-5.5e-4 0,-0.002 0,-0.003 v -24.40293 l 16.20103,-16.20103 c 1.59221,-1.59222 1.59221,-4.17325 0,-5.76547 -1.59222,-1.59221 -4.17379,-1.59221 -5.76547,0 L 175.13149,193.305 v -20.5977 c 0,-5.5e-4 0,-0.002 0,-0.003 v -37.44943 l 11.85219,-11.8522 c 1.59222,-1.59222 1.59222,-4.17325 0,-5.76547 -1.59221,-1.59221 -4.17379,-1.59221 -5.76546,0 l -6.08673,6.0862 v -11.90139 c 0,-2.25161 -1.82543,-4.07703 -4.07704,-4.07703 -2.2516,0 -4.07703,1.82542 -4.07703,4.07703 v 21.74307 c 0,5.5e-4 0,0.002 0,0.003 v 29.29537 L 156.54186,152.4276 c -1.59222,-1.59221 -4.1738,-1.59221 -5.76547,0 -1.59221,1.59222 -1.59221,4.17325 0,5.76547 l 16.20103,16.20103 v 28.75176 c 0,5.5e-4 0,0.002 0,0.003 v 16.24887 l -10.43556,-10.43557 c -1.59222,-1.59221 -4.1738,-1.59221 -5.76547,0 -1.59221,1.59222 -1.59221,4.17325 0,5.76547 l 16.20103,16.20157 v 47.33813 c -9.84086,-6.48574 -29.04911,-19.54746 -41.03558,-30.31517 -5.47246,-4.91581 -8.42641,-9.12222 -8.78029,-12.50289 -0.2767,-2.64463 1.04535,-4.95115 2.57722,-7.62133 1.88196,-3.28174 4.22381,-7.36529 3.11486,-12.49528 -1.67539,-7.74853 -8.02577,-11.48853 -13.6287,-14.78821 -6.30418,-3.71281 -11.748373,-6.91845 -12.38439,-15.10784 -0.44195,-5.69045 1.99394,-8.43728 5.36592,-12.24033 2.82619,-3.18716 6.02911,-6.79995 7.55337,-12.48061 1.99394,-7.43107 -0.39139,-12.89755 -2.49568,-17.72041 -1.90044,-4.35535 -3.40133,-7.79528 -1.90262,-12.5529 1.77976,-5.64968 5.54531,-7.0163 10.31217,-8.74659 4.08084,-1.48132 8.70582,-3.15997 11.17813,-8.02795 3.41656,-6.72655 1.21659,-12.92473 -0.72462,-18.393383 -2.28966,-6.449862 -3.49755,-10.664425 0.35171,-15.796591 3.23879,-4.31839 6.3194,-4.800567 10.5818,-5.467569 4.4233,-0.692008 9.92784,-1.553077 15.23233,-7.245699 2.92241,-3.136596 4.5679,-6.898336 6.01987,-10.217582 2.79086,-6.37865 4.47495,-10.228998 12.74153,-10.228998 8.26659,0 9.95068,3.850348 12.741,10.228998 1.45196,3.319246 3.09745,7.08153 6.01987,10.217582 5.30449,5.692622 10.80902,6.553691 15.23233,7.245699 4.26294,0.667002 7.343,1.149179 10.5818,5.467569 3.84926,5.132166 2.64137,9.346729 0.35116,15.797678 -1.94121,5.468656 -4.14117,11.666826 -0.72462,18.393386 2.47231,4.86798 7.09784,6.54663 11.17813,8.02795 4.76686,1.73029 8.53241,3.09691 10.31217,8.74659 1.49872,4.75708 -0.002,8.19755 -1.90262,12.5529 -2.10429,4.82286 -4.48962,10.2888 -2.49568,17.72041 1.52426,5.68066 4.72718,9.29345 7.55338,12.4806 3.37306,3.80143 5.80895,6.5488 5.367,12.23925 z"
       id="path3327" /><g
       id="text4162"
       style="font-style:normal;font-variant:normal;font-stretch:normal;font-size:325.166px;line-height:125%;font-family:'Roboto Mono Thin for Powerline';-inkscape-font-specification:'Roboto Mono Thin for Powerline Semi-Light';letter-spacing:0px;word-spacing:0px;fill:#008080;fill-opacity:1;stroke:#008080;stroke-width:8.127;stroke-linecap:round;stroke-linejoin:round;stroke-dasharray:none;stroke-opacity:1"
       transform="translate(6,8)"><path
         id="path3058"
         style="font-family:'Roboto Mono Thin for Powerline';-inkscape-font-specification:'Roboto Mono Thin for Powerline Semi-Light';fill:#008080;stroke:#008080;stroke-width:8.127;stroke-dasharray:none"
         d="M 128.84294,326.84353 C 110.95445,321.02182 97.194192,312.13057 87.562125,300.16978 78.03568,288.20889 73.166665,272.70214 72.955067,253.64947 v -38.89923 c -0.211794,-14.1836 -4.181099,-24.92719 -11.907927,-32.23079 -7.727,-7.40929 -18.52351,-11.3786 -32.389563,-11.90792 l -0.158772,-3.65177 v -3.17544 l 0.158772,-3.65177 c 13.760204,-0.52914 24.50379,-4.44552 32.23079,-11.74915 7.832676,-7.30342 11.854906,-17.99408 12.0667,-32.07202 V 77.094604 C 73.166665,58.042119 78.03568,42.482443 87.562125,30.415529 97.194192,18.24322 110.90153,9.1932042 128.68417,3.2654549 l 2.54035,7.1447561 C 115.453,15.702865 103.28046,23.959019 94.706881,35.1787 86.133062,46.398824 81.740364,60.370778 81.528775,77.094604 v 39.216776 c -0.211803,13.86624 -3.863564,24.92738 -10.955293,33.18342 -7.091921,8.15042 -16.618254,13.44282 -28.579026,15.87724 11.960772,2.54045 21.487105,7.99162 28.579026,16.35355 7.091729,8.25623 10.74349,19.26444 10.955293,33.02465 v 38.89923 c 0.105741,8.46786 1.322995,16.14185 3.651764,23.022 2.434397,6.88011 5.821537,13.0193 10.161431,18.41759 4.339654,5.50407 9.57914,10.26723 15.71846,14.28951 6.24491,4.12803 13.23089,7.51517 20.95796,10.16143 l -3.17545,7.30353" /></g><g
       id="text4166"
       style="font-style:normal;font-variant:normal;font-stretch:normal;font-size:325.166px;line-height:125%;font-family:'Roboto Mono Thin for Powerline';-inkscape-font-specification:'Roboto Mono Thin for Powerline Semi-Light';letter-spacing:0px;word-spacing:0px;fill:#008080;fill-opacity:1;stroke:#008080;stroke-width:8.127;stroke-linecap:round;stroke-linejoin:round;stroke-dasharray:none;stroke-opacity:1"
       transform="matrix(-1,0,0,1,6,8)"><path
         id="path3061"
         style="font-family:'Roboto Mono Thin for Powerline';-inkscape-font-specification:'Roboto Mono Thin for Powerline Semi-Light';fill:#008080;stroke:#008080;stroke-width:8.127;stroke-dasharray:none"
         d="m -201.26604,326.84353 c -17.88849,-5.82171 -31.64875,-14.71296 -41.28082,-26.67375 -9.52644,-11.96089 -14.39546,-27.46764 -14.60706,-46.52031 v -38.89923 c -0.21179,-14.1836 -4.1811,-24.92719 -11.90792,-32.23079 -7.727,-7.40929 -18.52351,-11.3786 -32.38957,-11.90792 l -0.15877,-3.65177 v -3.17544 l 0.15877,-3.65177 c 13.76021,-0.52914 24.50379,-4.44552 32.23079,-11.74915 7.83268,-7.30342 11.85491,-17.99408 12.0667,-32.07202 V 77.094604 c 0.2116,-19.052485 5.08062,-34.612161 14.60706,-46.679075 9.63207,-12.172309 23.3394,-21.2223248 41.12204,-27.1500741 l 2.54036,7.1447561 c -15.77153,5.292654 -27.94406,13.548808 -36.51764,24.768489 -8.57382,11.220124 -12.96652,25.192078 -13.17811,41.915904 v 39.216776 c -0.2118,13.86624 -3.86356,24.92738 -10.95529,33.18342 -7.09192,8.15042 -16.61826,13.44282 -28.57903,15.87724 11.96077,2.54045 21.48711,7.99162 28.57903,16.35355 7.09173,8.25623 10.74349,19.26444 10.95529,33.02465 v 38.89923 c 0.10574,8.46786 1.323,16.14185 3.65177,23.022 2.43439,6.88011 5.82153,13.0193 10.16143,18.41759 4.33965,5.50407 9.57913,10.26723 15.71846,14.28951 6.2449,4.12803 13.23088,7.51517 20.95795,10.16143 l -3.17544,7.30353" /></g></g></svg>
